<svg viewBox="0 0 640 400" data-background-color="#ffffff" preserveAspectRatio="xMidYMid meet" height="400" width="640" xmlns="http://www.w3.org/2000/svg" xmlns:xlink="http://www.w3.org/1999/xlink"><rect width="640" height="400" x="0" y="0" opacity="1" fill="#ffffff" data-fill-palette-color="background" id="background"></rect><g id="tight-bounds" transform="matrix(1,0,0,1,122.24000000000001,76.4)"><svg viewBox="0 0 395.52 247.2" height="247.2" width="395.52"><g><svg></svg></g><g><svg viewBox="0 0 395.52 247.2" height="247.2" width="395.52"><g><path d="M145.254 217.523c0 5.87-0.217 10.327-0.652 13.371-1.304 10.871-5.327 16.306-12.066 16.306-3.696 0-7.936-1.413-12.719-4.24-5.435-3.261-9.501-6.914-12.197-10.957-2.739-4-4.109-8.718-4.109-14.154 0-1.202 0.041-2.24 0.123-3.114h41.62zM180.802 25.764c18.48-12.827 36.96-20.98 55.44-24.46 3.696-0.87 7.936-1.304 12.719-1.304 14.349 0 26.633 5.435 36.852 16.306 4.131 4.131 6.196 7.718 6.196 10.762 0 1.304-0.544 3.044-1.631 5.218-0.037 0.06-0.074 0.119-0.111 0.179l-31.453 0c-1.973-0.554-4.062-0.831-6.266-0.831-4.823-1.447-10.063-1.17-15.718 0.831l-65.308 0c2.986-2.272 6.079-4.506 9.28-6.701z" fill="#5ebc67" data-fill-palette-color="tertiary"></path></g><g transform="matrix(1,0,0,1,0,53.05351810460439)"><svg viewBox="0 0 395.52 141.0929637907912" height="141.0929637907912" width="395.52"><g><svg viewBox="0 0 395.52 141.0929637907912" height="141.0929637907912" width="395.52"><g><svg viewBox="0 0 395.52 141.0929637907912" height="141.0929637907912" width="395.52"><g><svg viewBox="0 0 395.52 141.0929637907912" height="141.0929637907912" width="395.52"><g><svg viewBox="0 0 395.52 141.0929637907912" height="141.0929637907912" width="395.52"><g><svg viewBox="0 0 395.52 141.0929637907912" height="141.0929637907912" width="395.52"><g transform="matrix(1,0,0,1,0,0)"><svg width="395.52" viewBox="2.5 -36.25 111.83999633789062 39.900001525878906" height="141.0929637907912" data-palette-color="#152232"><path d="M12.8-22.25Q11.35-19.55 10.93-18 10.5-16.45 10.2-14.3L10.2-14.3Q10.7-14.3 11.85-14.33 13-14.35 13.35-14.4L13.35-14.4 16.2-15Q17.25-15.25 18.05-15.43 18.85-15.6 21-15.95L21-15.95Q21.95-16.1 23.05-16.15 24.15-16.2 24.5-16.2L24.5-16.2Q25.7-16.2 26.3-16.25L26.3-16.25Q27.15-16.25 27.5-15.95L27.5-15.95Q28.95-14.7 28.95-13.8L28.95-13.8Q28.95-13.2 28.5-12.95 28.05-12.7 27.1-12.4L27.1-12.4 22.45-11.4 12.75-8.75Q12.5-8.7 12.28-8.58 12.05-8.45 11.8-8.4L11.8-8.4Q10.2-8.05 9.68-7.83 9.15-7.6 9.03-7.05 8.9-6.5 8.9-4.9L8.9-4.9 8.9-2.9Q8.9-1.55 8.8-0.85L8.8-0.85Q8.5 1.65 6.95 1.65L6.95 1.65Q6.1 1.65 5 1L5 1Q3.75 0.25 3.13-0.68 2.5-1.6 2.5-2.85L2.5-2.85Q2.5-3.3 2.55-3.55L2.55-3.55Q2.95-7.05 3.1-8.75L3.1-8.75Q3.25-10.2 3.5-12.43 3.75-14.65 4.15-17.6L4.15-17.6Q4.8-22.25 7.43-25.8 10.05-29.35 14.35-32.3L14.35-32.3Q18.6-35.25 22.85-36.05L22.85-36.05Q23.7-36.25 24.8-36.25L24.8-36.25Q28.1-36.25 30.45-33.75L30.45-33.75Q31.4-32.8 31.4-32.1L31.4-32.1Q31.4-31.8 31.15-31.3L31.15-31.3Q30.5-30.25 29.35-30.25L29.35-30.25Q28.95-30.25 28.5-30.4L28.5-30.4Q28.25-30.5 27.88-30.6 27.5-30.7 27.3-30.8L27.3-30.8Q26.45-31.4 25.35-31.4L25.35-31.4Q23.85-31.85 22-30.85 20.15-29.85 16.95-27.35L16.95-27.35Q15.25-26.1 14-24.5L14-24.5 12.8-22.25ZM39.1-21.2Q39.25-20.7 39.15-19.65L39.15-19.65 38.55-13.75Q38.8-13.95 39.3-15.18 39.8-16.4 40.25-17.18 40.7-17.95 40.95-18.2L40.95-18.2Q43.3-20.45 46.25-20.9 49.2-21.35 52.75-21.3L52.75-21.3Q53.1-21.3 53.52-21.03 53.95-20.75 53.95-20.58 53.95-20.4 53.65-20.03 53.35-19.65 53.1-19.55L53.1-19.55Q50.1-18.55 47.82-17.25 45.55-15.95 43.9-13.85L43.9-13.85Q40-8.9 39.4-3.65L39.4-3.65Q39.25-2.25 38.55-1.78 37.85-1.3 36.6-1.3L36.6-1.3Q35.2-1.3 34.1-2.5 33-3.7 33-5.15L33-5.15Q33.05-10.45 33.05-21.05L33.05-21.05Q33.05-22.5 33.7-23.08 34.35-23.65 36.05-23.65L36.05-23.65Q37.3-23.65 38.17-22.95 39.05-22.25 39.1-21.2L39.1-21.2ZM63.6-7.8Q63.1-7.5 62.15-7.5L62.15-7.5Q61.8-7.5 61.3-7.55 60.8-7.6 60.45-7.55L60.45-7.55Q60.85-5.9 62.35-4.88 63.85-3.85 65.7-3.85L65.7-3.85Q67.3-3.85 68.55-4.55L68.55-4.55Q70.4-5.5 71.75-6.8L71.75-6.8Q72.7-7.75 73.55-7.75L73.55-7.75Q74.09-7.75 74.5-7.2L74.5-7.2Q74.9-6.55 74.9-5.6L74.9-5.6Q74.9-4.6 74.5-4.05L74.5-4.05Q73.2-2.05 71.12-1.3 69.05-0.55 66.3-0.55L66.3-0.55Q63.45-0.55 60.8-1.8 58.15-3.05 56.27-5.23 54.4-7.4 53.8-10.05L53.8-10.05Q53.4-11.6 53.4-13.1L53.4-13.1Q53.4-15.45 54.72-16.9 56.05-18.35 59-19.65L59-19.65Q61.7-20.8 64-20.8L64-20.8Q65.65-20.8 67.2-20.3L67.2-20.3Q72-18.8 72-16.2L72-16.2Q72-14.55 70.05-12.2L70.05-12.2Q69.09-11.1 67.8-10.25 66.5-9.4 65.27-8.72 64.05-8.05 63.6-7.8L63.6-7.8ZM65.7-17.05Q65.65-17.3 65.32-17.48 65-17.65 64.95-17.7L64.95-17.7Q63.6-17.8 62.2-16.93 60.8-16.05 59.87-14.7 58.95-13.35 58.95-12.1L58.95-12.1 59-11.7Q59.05-11.5 59.52-11.2 60-10.9 60.1-11L60.1-11Q63.65-13.65 65.45-15.25L65.45-15.25Q65.75-15.55 65.75-16.35L65.75-16.35Q65.75-16.85 65.7-17.05L65.7-17.05ZM82.14 1.1Q77.94 1.1 76.79-2.5L76.79-2.5Q77.19-2.5 77.87-2.48 78.54-2.45 78.99-2.35L78.99-2.35Q79.69-2.25 79.99-2.25L79.99-2.25Q82.24-2.25 83.74-4.25L83.74-4.25Q84.79-5.7 84.79-7.2L84.79-7.2Q84.79-8.2 84.29-9.15L84.29-9.15Q83.19-11.1 81.59-13.45L81.59-13.45Q80.54-15 79.69-16.4L79.69-16.4Q78.69-18 78.69-19.95L78.69-19.95Q78.69-21.75 79.72-23.13 80.74-24.5 82.74-24.85L82.74-24.85 84.34-25.15Q86.94-25.65 88.24-25.65L88.24-25.65Q90.39-25.65 92.04-24.65L92.04-24.65Q92.39-24.4 92.77-23.78 93.14-23.15 93.34-22.8L93.34-22.8Q92.99-22.65 92.37-22.33 91.74-22 91.29-21.95L91.29-21.95Q90.59-21.85 89.19-21.85L89.19-21.85Q87.84-21.85 87.14-21.8L87.14-21.8Q85.54-21.65 84.62-20.73 83.69-19.8 83.69-18.5L83.69-18.5Q83.69-17.5 84.29-16.45L84.29-16.45Q85.64-14.2 88.04-11.3L88.04-11.3Q89.84-9.05 89.84-6.65L89.84-6.65Q89.84-5.35 89.24-3.9L89.24-3.9Q87.19 1.1 82.14 1.1L82.14 1.1ZM100.54-26.7Q100.59-21.85 100.82-18.73 101.04-15.6 101.89-12.1L101.89-12.1Q103.99-12.85 105.74-12.85L105.74-12.85Q108.69-12.85 110.84-11.1 112.99-9.35 113.74-6.75L113.74-6.75Q114.34-4.85 114.34-1.65L114.34-1.65 114.29 2.25Q114.29 2.6 113.89 3.05 113.49 3.5 113.09 3.6L113.09 3.6Q112.94 3.65 112.64 3.65L112.64 3.65Q111.49 3.65 110.24 2.53 108.99 1.4 108.94 0.3L108.94 0.3 108.84-2.3Q108.84-3.2 108.74-4.9L108.74-4.9Q108.64-6.65 108.34-7.4L108.34-7.4Q108.04-8.25 107.59-8.7 107.14-9.15 106.59-9.15L106.59-9.15Q106.19-9.15 105.72-8.8 105.24-8.45 104.89-7.85L104.89-7.85Q103.84-6.2 102.14-1.35L102.14-1.35Q101.59 0.4 100.19 0.4L100.19 0.4Q100.04 0.4 99.54 0.3L99.54 0.3Q99.24 0.2 98.39-0.03 97.54-0.25 97.07-0.75 96.59-1.25 96.59-2.2L96.59-2.2Q96.59-11.65 95.44-17.85L95.44-17.85Q94.89-20.95 94.89-25L94.89-25 94.89-28.35 94.89-30.1Q94.89-30.8 95.64-31.3 96.39-31.8 97.34-31.8L97.34-31.8Q98.14-31.8 98.69-31.45L98.69-31.45Q99.69-30.85 100.12-29.95 100.54-29.05 100.54-27.7L100.54-27.7 100.54-26.7Z" opacity="1" transform="matrix(1,0,0,1,0,0)" fill="#152232" class="undefined-text-0" data-fill-palette-color="primary" id="text-0"></path></svg></g></svg></g></svg></g></svg></g><g></g></svg></g></svg></g></svg></g></svg></g></svg><rect width="395.52" height="247.2" fill="none" stroke="none" visibility="hidden"></rect></g><defs></defs></svg>
